<svg version="1.2" xmlns="http://www.w3.org/2000/svg" viewBox="0 0 1024 1024" width="1024" height="1024"><style>.a{fill:#fdfeff}.b{opacity:.86;fill:#0c0d10}</style><path fill-rule="evenodd" class="a" d="m1024 0v1024h-1024v-1024z"/><path class="b" d="m512 774.9q-15.3 0-26-10.7-10.7-10.7-10.7-26v-138.1l-97.8 98.1q-11.1 11.1-26.1 10.9-14.9-0.2-26-11.3-11.1-11.1-11.1-25.8 0-14.8 11.1-25.9l97.3-97h-136.9q-15.3 0-26-10.7-10.7-10.7-10.7-26 0-15.3 10.7-26 10.7-10.8 26-10.8h138.1l-98.1-97.7q-10.7-10.7-10.7-25.7 0-14.9 10.7-26 10.7-11.1 25.8-11.3 15.2-0.2 26.3 10.9l97.4 97.7v-137.7q0-15.3 10.7-26 10.7-10.7 26-10.7 15.3 0 26 10.7 10.7 10.7 10.7 26v136.9l96.7-96.9q11-11.1 26.2-11.1 15.1 0 26.2 11.1 11.1 11.1 11.1 26.2 0 15.2-11.1 26.2l-97.7 97.4h138.1q15.3 0 26 10.8 10.7 10.7 10.7 26 0 15.3-10.7 26-10.7 10.7-26 10.7h-137.3l97.3 97q11.1 11.1 11.1 25.9 0 14.7-11.1 25.8-11.1 11.1-26 11.1-15 0-26.1-11.1l-97.4-97.3v137.7q0 15.3-10.7 26-10.7 10.7-26 10.7z"/></svg>